<svg width="48" height="48" viewBox="0 0 48 48" fill="none" xmlns="http://www.w3.org/2000/svg">
<g filter="url(#filter0_d)">
<path d="M24 42C35.0457 42 44 33.0457 44 22C44 10.9543 35.0457 2 24 2C12.9543 2 4 10.9543 4 22C4 33.0457 12.9543 42 24 42Z" fill="white"/>
</g>
<path d="M30.3319 21.9975L31.769 20.5911C32.1973 20.1856 31.9976 19.4649 31.4357 19.3305L29.4779 18.8308L30.0298 16.8929C30.1858 16.3354 29.6602 15.8096 29.1029 15.9656L27.1656 16.5177L26.6661 14.5593C26.5339 14.0062 25.8052 13.8039 25.4059 14.2259L24 15.6741L22.5941 14.2259C22.1994 13.8087 21.4676 13.9999 21.3339 14.5593L20.8344 16.5178L18.8971 15.9657C18.3397 15.8096 17.8142 16.3356 17.9702 16.8929L18.5221 18.8309L16.5643 19.3305C16.0022 19.465 15.8028 20.1858 16.231 20.5911L17.668 21.9975L16.231 23.4039C15.8026 23.8094 16.0024 24.5301 16.5642 24.6645L18.5221 25.1642L17.9702 27.1021C17.8142 27.6596 18.3398 28.1854 18.8971 28.0294L20.8344 27.4773L21.3339 29.4357C21.4726 30.0162 22.1994 30.1863 22.594 29.7691L24 28.3316L25.4059 29.7691C25.7965 30.1906 26.5305 30.003 26.6661 29.4357L27.1656 27.4773L29.1029 28.0294C29.6602 28.1854 30.1857 27.6595 30.0298 27.1021L29.4779 25.1642L31.4357 24.6645C31.9978 24.53 32.1971 23.8093 31.7689 23.4039L30.3319 21.9975Z" fill="#1890FF"/>
<defs>
<filter id="filter0_d" x="0" y="0" width="48" height="48" filterUnits="userSpaceOnUse" color-interpolation-filters="sRGB">
<feFlood flood-opacity="0" result="BackgroundImageFix"/>
<feColorMatrix in="SourceAlpha" type="matrix" values="0 0 0 0 0 0 0 0 0 0 0 0 0 0 0 0 0 0 127 0"/>
<feOffset dy="2"/>
<feGaussianBlur stdDeviation="2"/>
<feColorMatrix type="matrix" values="0 0 0 0 0 0 0 0 0 0 0 0 0 0 0 0 0 0 0.2 0"/>
<feBlend mode="normal" in2="BackgroundImageFix" result="effect1_dropShadow"/>
<feBlend mode="normal" in="SourceGraphic" in2="effect1_dropShadow" result="shape"/>
</filter>
</defs>
</svg>
