<svg width="48" height="48" viewBox="0 0 48 48" fill="none" xmlns="http://www.w3.org/2000/svg">
<g filter="url(#filter0_d)">
<path d="M24 42C35.0457 42 44 33.0457 44 22C44 10.9543 35.0457 2 24 2C12.9543 2 4 10.9543 4 22C4 33.0457 12.9543 42 24 42Z" fill="white"/>
</g>
<path fill-rule="evenodd" clip-rule="evenodd" d="M24 14C22.7573 14 21.75 15.0073 21.75 16.25C21.75 17.4926 22.7573 18.5 24 18.5C25.2426 18.5 26.25 17.4926 26.25 16.25C26.25 15.0073 25.2426 14 24 14ZM28.2929 16.2929C28.6834 15.9024 29.3166 15.9024 29.7071 16.2929C30.0976 16.6834 30.0976 17.3166 29.7071 17.7071L26.75 20.6642V29C26.75 29.5523 26.3023 30 25.75 30H25.25C24.6977 30 24.25 29.5523 24.25 29V25.5H23.75V29C23.75 29.5523 23.3023 30 22.75 30H22.25C21.6977 30 21.25 29.5523 21.25 29V20.6642L18.2929 17.7071C17.9024 17.3166 17.9024 16.6834 18.2929 16.2929C18.6834 15.9024 19.3166 15.9024 19.7071 16.2929L22.4142 19H25.5858L28.2929 16.2929Z" fill="#52C41A"/>
<defs>
<filter id="filter0_d" x="0" y="0" width="48" height="48" filterUnits="userSpaceOnUse" color-interpolation-filters="sRGB">
<feFlood flood-opacity="0" result="BackgroundImageFix"/>
<feColorMatrix in="SourceAlpha" type="matrix" values="0 0 0 0 0 0 0 0 0 0 0 0 0 0 0 0 0 0 127 0"/>
<feOffset dy="2"/>
<feGaussianBlur stdDeviation="2"/>
<feColorMatrix type="matrix" values="0 0 0 0 0 0 0 0 0 0 0 0 0 0 0 0 0 0 0.2 0"/>
<feBlend mode="normal" in2="BackgroundImageFix" result="effect1_dropShadow"/>
<feBlend mode="normal" in="SourceGraphic" in2="effect1_dropShadow" result="shape"/>
</filter>
</defs>
</svg>
