<svg width="48" height="48" viewBox="0 0 48 48" fill="none" xmlns="http://www.w3.org/2000/svg">
<g filter="url(#filter0_d)">
<path d="M24 42C35.0457 42 44 33.0457 44 22C44 10.9543 35.0457 2 24 2C12.9543 2 4 10.9543 4 22C4 33.0457 12.9543 42 24 42Z" fill="white"/>
</g>
<path fill-rule="evenodd" clip-rule="evenodd" d="M31.4 18.0045H30.2C30.0223 18.0045 29.8628 18.0817 29.7529 18.2042H29.1648L28.3865 17.2978L28.3825 17.2933C27.8889 16.7295 27.1755 16.4062 26.4257 16.4063H25.262C24.8182 16.4063 24.3895 16.5296 24.0197 16.7561C23.6082 16.5294 23.1418 16.4063 22.6655 16.4063H21.8628C21.1402 16.4063 20.4228 16.6864 19.8828 17.2253L18.903 18.2042H18.2471C18.1373 18.0817 17.9777 18.0045 17.8 18.0045H16.6C16.2686 18.0045 16 18.2728 16 18.6038V24.5971C16 24.9281 16.2686 25.1964 16.6 25.1964H17.8C18.0612 25.1964 18.2833 25.0296 18.3657 24.7969H18.8358L20.7195 26.4842C21.358 27.1448 22.2176 27.5938 23.134 27.5938C23.5437 27.5938 23.941 27.4976 24.2865 27.3208C24.9099 27.3332 25.564 27.0619 26.0133 26.5364C26.5054 26.3971 26.9508 26.1013 27.2812 25.6724C27.806 25.5625 28.2994 25.2606 28.6167 24.7969H29.6343C29.7167 25.0296 29.9388 25.1964 30.2 25.1964H31.4C31.7314 25.1964 32 24.9281 32 24.5971V18.6038C32 18.2728 31.7314 18.0045 31.4 18.0045ZM17.2 24.3973C16.9791 24.3973 16.8 24.2184 16.8 23.9978C16.8 23.7771 16.9791 23.5982 17.2 23.5982C17.4209 23.5982 17.6 23.7771 17.6 23.9978C17.6 24.2184 17.4209 24.3973 17.2 24.3973ZM26.5143 24.4533C26.5909 24.5364 27.1293 24.6105 27.513 24.2535C27.8385 23.9511 27.9008 23.3635 27.5648 22.9989L25.7538 20.6048L25.1043 21.356C24.2767 22.2861 22.802 22.2771 21.9923 21.3065C21.4128 20.6118 21.4198 19.6094 22.0088 18.9232L23.0905 17.6623C22.9533 17.6246 22.8105 17.6049 22.6655 17.6049H21.8628C21.4383 17.6049 21.0313 17.7733 20.7313 18.0731L19.6343 19.1689C19.4843 19.3187 19.2808 19.4029 19.0688 19.4029H18.4V23.5982H18.989C19.1861 23.5982 19.3763 23.671 19.523 23.8025L21.5555 25.6232C21.9398 26.032 22.5103 26.3951 23.134 26.3951C23.4385 26.3951 23.7778 26.2892 24 26.0672C24.5818 26.2689 25.1487 25.8867 25.2873 25.4242C26.0578 25.4782 26.5496 24.7874 26.5143 24.4533ZM29.6 23.5982H28.9886C28.9911 23.0922 28.8186 22.616 28.4945 22.2397L26.5425 19.6596C26.6553 19.4221 26.601 19.1294 26.3923 18.9492C26.1404 18.7321 25.7615 18.7619 25.5457 19.0111L24.205 20.5623C23.8593 20.9472 23.2494 20.9405 22.914 20.5391C22.7108 20.2967 22.7132 19.9429 22.9198 19.7033L24.3678 18.0157C24.5915 17.7549 24.9182 17.6048 25.262 17.6049H26.4258C26.8285 17.6049 27.2118 17.7782 27.4775 18.0804L28.613 19.4029H29.6V23.5982ZM30.4 23.9978C30.4 24.2184 30.5791 24.3973 30.8 24.3973C31.0209 24.3973 31.2 24.2184 31.2 23.9978C31.2 23.7771 31.0209 23.5982 30.8 23.5982C30.5791 23.5982 30.4 23.7771 30.4 23.9978Z" fill="#52C41A"/>
<defs>
<filter id="filter0_d" x="0" y="0" width="48" height="48" filterUnits="userSpaceOnUse" color-interpolation-filters="sRGB">
<feFlood flood-opacity="0" result="BackgroundImageFix"/>
<feColorMatrix in="SourceAlpha" type="matrix" values="0 0 0 0 0 0 0 0 0 0 0 0 0 0 0 0 0 0 127 0"/>
<feOffset dy="2"/>
<feGaussianBlur stdDeviation="2"/>
<feColorMatrix type="matrix" values="0 0 0 0 0 0 0 0 0 0 0 0 0 0 0 0 0 0 0.2 0"/>
<feBlend mode="normal" in2="BackgroundImageFix" result="effect1_dropShadow"/>
<feBlend mode="normal" in="SourceGraphic" in2="effect1_dropShadow" result="shape"/>
</filter>
</defs>
</svg>
