<svg width="115" height="73" viewBox="0 0 115 73" fill="none" xmlns="http://www.w3.org/2000/svg">
<g clip-path="url(#clip0)">
<path d="M68.6 4.7C65.6 1.7 61.5 0 57.3 0C53 0 49 1.7 46 4.7L57.3 16L68.6 4.7Z" fill="white"/>
<path d="M79 48.9L70.9 72.9H76.9L78.1 69.1H87L88.2 72.9H94.2L86.1 48.9H79ZM85.3 64H79.7L82.5 55.2L85.3 64Z" fill="white"/>
<path d="M73.1999 31.5C76.0999 28.4 77.7999 24.3 77.6999 20C77.5999 15.7 76.0999 11.6 73.1999 8.60001L62.2 20L73.1999 31.5Z" fill="white"/>
<path d="M46 35.9C52.3 42.2 62.4 42.2 68.6 35.9L57.3 24.5L46 35.9Z" fill="white"/>
<path d="M52.9001 20.2L41.5 8.89999C38.5 11.9 36.8 16 36.8 20.2C36.8 24.4 38.5 28.5 41.5 31.5L52.9001 20.2Z" fill="white"/>
<path d="M12 59.6L5.5 48.9H0V72.9H5.5V59L11.7 69.1H12.3L18.5 59V72.9H23.9V48.9H18.5L12 59.6Z" fill="white"/>
<path d="M107.9 60.6L114.7 48.9H108.4L104.7 55.3L101 48.9H94.8L101.6 60.6L94.5 72.9H100.7L104.7 66L108.8 72.9H115L107.9 60.6Z" fill="white"/>
<path d="M59.1 48.9H49.5V58.9H47V63.9H49.5V72.8H59.1C65.7 72.8 70.7 67.6 70.7 60.8C70.7 54.1 65.7 48.9 59.1 48.9ZM59.1 67.6H55V64H58V59H55V54.2H59.1C62.9 54.2 65.5 56.8 65.5 60.9C65.5 65 62.9 67.6 59.1 67.6Z" fill="white"/>
<path d="M41.3 48.9L36.7 58.2L32.2 48.9H26L34 63.7V72.9H39.5V63.7L47.5 48.9H41.3Z" fill="white"/>
</g>
<defs>
<clipPath id="clip0">
<rect width="115" height="72.9" fill="white"/>
</clipPath>
</defs>
</svg>
