<svg width="1440" height="600" viewBox="0 0 1440 600" fill="none" xmlns="http://www.w3.org/2000/svg">
<path d="M1440 0H0V600H1440V0Z" fill="#1C98FF"/>
<path d="M0 482L4.8 490L8.9 482.3L19 489.2L29.5 482.1L34.7 487.9L42.6 483.3L50.5 484.5L54.6 474.5L60.6 466L63.6 459.4L67.7 454L74.8 457.9L78.2 450.8V446L83.1 447.7L86.5 441.9L98.5 440.9L102.3 447.1L106.4 444L109.8 451.7L114.7 459.4L122.6 450L127.8 453.3L134.6 451L140.2 457.7L151.8 442.3L162.3 448.3L169.4 445.4V449.1L180.6 446.4L189.6 449.5L197.1 447.4L201.2 451.4L212.4 456.6L219.5 452.7L224.7 456.2L232.2 453.3L243.1 457.7L248.7 460.6L254.7 471L260.3 477.9L263.3 472.7L268.5 467.1L277.1 472.1L282.3 469.8L288.7 472.7L291.3 476.9L301.4 474.6L309.3 477.5L312.7 475.2L320.6 478.3L327.7 476L338.6 496.8L344.6 494.3L349.5 488.1L358.5 502.2L375.4 521.1L379.1 515.5L381.3 509.3L384.3 504.9L390.7 508L394.8 495.3L402.3 502.6L407.2 498.9L410.9 502.4L415.8 504.5L420.7 511.4L427.4 509.3L440.1 520.3L445.7 518.8L450.9 512.1L463.6 487.8L472.2 501.5L474.8 498L484.9 510.3L493.1 507.4V500L500.6 507.7L506.6 501.9L517.8 505L530.2 513.3L547.4 525.1L555.3 517.8L563.9 522.2L579.3 523L586.4 540L593.1 532.7L603.6 541.2L608.5 566.4L617.1 572.8L624.6 565.9L626.5 555.5L632.5 553.8C632.5 553.8 636.6 526.6 636.6 527.8C636.6 529 644.5 557.1 644.5 557.1L653.1 566.2C653.1 566.2 655.7 551.9 656.5 552.7C657.3 553.5 662.5 561.8 662.5 561.8L668.9 558.5L677.1 564.1L684.6 542.9L691 554.7L697 549.5L705.2 555.3L711.2 553.4L715.3 548.2L722.4 541.5V535.7L732.9 536.6L740.4 528.8L747.5 534L754.2 531.7L760.6 544L772.2 542.1L775.6 550.8L784.6 549.1L791.3 550.6L802.9 544.4L808.5 550.6L815.6 556.6L827.2 561.2L834.3 558.9L842.5 555.2L847.7 563.5L854.1 560.6L860.1 554.8L866.8 552.5L869.8 555L876.9 549L881.4 550.9L894.1 553.2L902.7 551.3L905.7 555.5L915.1 551.8L921.8 554.9L928.2 553.2L935.3 561.5L943.9 558.4L948.8 560.3L952.9 557.2L967.9 555.5L970.9 546.1L978 551.9L990.4 552.7L993.4 550.8L1001.3 546L1003.9 543.1L1005.8 545.4L1014.4 540.4L1022.3 542.5L1027.5 537.7L1031.2 526.3L1038 531.1L1040.2 536.6L1054.4 538.4L1059.3 533L1068.7 529.5L1078.8 535.7L1086.7 533.6L1090.8 535.5L1095.7 544L1103.6 539.6L1108.5 543.3L1120.5 557.9L1127.6 555.4L1133.2 570.4L1141.1 558.3L1145.6 555.2L1157.2 558.5L1164 551.6L1169.2 550.1L1177.1 552.6L1183.1 558.2L1192.8 555.1L1197.3 557.2L1206.3 554.5L1219.8 553.5L1232.9 549.1L1243.4 551L1254.3 545.2L1259.2 538.8L1264.8 541.7L1268.9 538.2L1274.9 534.5L1276.8 531.8L1282 529.7L1284.6 525.3L1289.1 519.3L1300 474.6L1305.2 502.9L1318.3 523.3L1325.4 516L1328 520.2L1334.4 516.5L1339.3 520L1350.2 520.6L1354.7 509.4L1362.2 503.2L1368.2 509.2L1374.6 496.9L1384 493.8L1391.5 484.4L1399.4 481.5L1412.1 487.5L1423.7 481.7L1426.7 492.1L1439.4 487.6V0H0V482Z" fill="url(#paint0_linear)"/>
<path d="M1440 530L1434.6 523.3L1430.9 528.9L1427.9 533.4L1424.9 529.8L1422.4 524.5L1420 528.4L1412.7 529.2L1406.7 523L1404.5 526L1402.6 533L1400.7 528.5L1394.5 526.5L1391.3 521.8L1388.9 516.8L1387.1 513.7L1383.1 495.2L1380.7 497.7L1376.7 491.8L1372.1 489.3L1365.6 445.8C1365.6 445.8 1363.5 453.3 1363.2 452.3C1362.9 451.4 1356.8 420.4 1356.8 420.4L1356 398.4L1354.3 415.2L1353.3 389.7L1351.5 378.2L1345.3 349.2L1343.4 359.6L1339.8 351.5L1337.1 388.6L1334.1 363.8L1331.1 371.7L1327.6 392.7L1326.6 406.3L1324.8 388.7L1322.9 399.4L1320.4 393.8L1318 385.7L1314.8 383.5L1311.3 379.9L1307.3 362.4L1304 374.6L1302.2 368.2L1300.8 374.1L1296.2 375.2L1293 371.8L1289.8 378.1L1287.3 370.3L1286.5 378.1L1283 374.6L1278.1 379.6L1275.2 388.3L1271.4 396.6L1269.5 407.5L1267.1 394.3L1264.1 398.8L1262.5 409.4L1260 401L1258.6 416.4L1255.7 404.9L1253.1 407.4L1250.6 392.9L1246.9 399.8L1243.4 396.5L1235.5 400.9L1234.4 406.2L1232.8 409L1229.9 403.7L1226.2 422.6L1223.8 420C1223.8 420 1222.5 423.7 1222.5 424.4C1222.5 425 1221.4 428.8 1221.4 428.8L1219 423.2L1214.2 439.6L1212.1 428.4L1210.8 432.3L1207.9 413.1L1205.5 421L1203.3 415.7L1199.5 420.1V424.3L1196 430.5L1194.3 424.7L1190 429.8L1185.5 424.5L1183.3 428.9L1180 425.5L1174.9 419L1172.4 412.6L1171.1 407.6L1169.3 403.6L1166.3 406.6L1164.9 401.3V397.7L1161.4 394.6L1156.3 393.8L1154.7 398.5L1151.5 401.9L1149.4 407.7L1146.1 400.7L1143.9 403.2L1138.7 406.5L1133.8 395L1129.4 399.5L1121.6 398.1L1117.8 400.4L1112.9 401.8L1108.1 405.7L1105.1 402.7L1102.9 405.3L1099.7 403.1L1095.1 406.4L1090.2 416.4L1087.8 421.5L1086.5 417.6L1084.3 413.4L1080.6 417.1L1075.7 417.6L1074.6 420.7L1070.3 419L1067 421.2L1059.2 420.1L1054.6 435.7L1050 429.2L1046.2 439.8L1039 454L1037.4 449.8L1036.4 445.1L1035.1 441.8L1032.4 444.1L1030.6 434.6L1027.4 440.1L1025.3 437.3L1023.7 439.9L1019.6 446.6L1011.3 453.3L1006.7 447.2L1001.3 429L997.6 439.3L992.2 445.8L988.7 443.6V438L985.5 443.8L983 439.4L978.2 441.7L973 447.9L965.7 456.8L962.4 451.3L958.7 454.6L952.2 455.2L949.2 468L946.3 462.5L941.8 468.9L939.7 487.8L936 492.6L932.8 487.5L932 479.7C929.5 478.5 927.7 458 927.7 459C927.7 459.9 924.4 481 924.4 481L920.7 487.9C920.7 487.9 919.6 477.1 919.3 477.8C919 478.4 916.8 484.7 916.8 484.7L914.1 482.2L910.6 486.4L907.4 470.5L904.7 479.4L902.2 475.5L898.7 479.9L894.4 474.6L891.4 469.6V465.2L883.8 460.1L880.8 464L875.2 471.5L870.3 470.1L868.9 476.6L862.2 476.4L857.3 471.7L854.9 476.4L851.9 480.9L847 484.3L840.5 479.8L838.3 486L833.1 479.5L825.9 475.1L819.7 476L814.9 476.8L813.6 479.9L809.6 477.1L806.7 479.4L801 484.4L797.3 482.1L790.1 481.6L785.8 472.9L782.8 477.3L777.6 477.9L773 472.9L767.4 468.7L761.8 466.7L760.2 458.1L757.3 461.7L756.3 465.8L750.3 467.2L748.2 463.1L744.2 460.5L739.9 465.2L734.8 465L732.7 471.4L729.4 468.1L727.3 470.9L722.2 481.8L716.8 491.1L713.5 482.1L707 482L704.1 476.9L698.5 477.7L696 481.9L691.9 479.6L686.2 479.1L680.5 478.3L674.9 475L670.4 476.4L665.8 472L663.7 467.2L657 463.9L654 460.3L652.9 457L651 452.5L646.4 419L644.2 440.2L638.6 455.5L635.6 450L634.5 453.1L631.8 450.3L629.7 453L623.2 445.1L620 440.4L617.5 444.9L614.8 435.7L610.8 433.4L607.6 426.4L604.3 424.2L598.9 428.7L594 424.3L592.7 432.1L589.8 428.4L583.6 428.1L578 426.2L574.5 430.3L573.4 440.6L569.1 437.5L567.7 432.2L566.1 439.4L563.9 435.4L561 438.4L557.7 442.9L554.5 440.4L552.7 437.1L549.5 441.3L546 439L542.7 432.6L536 427.9L533 431.2L530.9 428.4L524.7 431.4L523.3 436.2L518.4 432.5L509.7 432.7L499.8 431.3L491.9 431.5L486 432L483.8 429.5L479 431.1L477.1 427.8L469.9 423L468.5 428L465.6 425.2L461.9 427.5L458.9 423.8L455.2 426.8L451.7 424.3L443.4 427.9L439.3 419.3L436.4 409.6L432.9 412.2L431.6 404.1L426.7 406.9C426.7 406.9 424.8 403.6 424.9 404.1C425.1 404.6 422.5 390.2 422.5 390.2L419 385.1L415.8 382.1L412.9 404.2L411 391.9L406.1 397.5L403.6 391.4L397.6 397.3L391.7 392.6L384.4 394.5L378.7 396.7L370.9 408.5L367.7 405.1L365.3 402.1L360.5 403.8L358.9 406.4L353 404.2L349.5 406.7L344.6 406.1L339.5 402.8L333.3 399.1L330.1 402.1L325 399.9L320.9 403.2L318 400.7L312.1 400.2L307.5 399.1L303.8 401.1L302.4 397.7L297 396.3L290.2 398L288.8 393.8L282.9 389.6L279.9 386.8L276.9 389.9L272 384.8L268.5 390.9L266.1 388.3L263.4 382.7L260.1 385.8L254.9 385.5L248.9 380.4L246 383.5L241.1 379.4L234.9 380.3L230.4 378.3L228.2 367.2L225.7 371.9L223.2 362.2L218.3 359.9L215.8 352.6L213.7 370.1L207.7 381.9L205.8 375L203.1 369.7L196.6 366.4L194.2 368.9L189.7 366.6L186.2 359.4L182.4 355.8L179.5 362.7L174.3 359.7L171.3 356.6L164.1 346.8L158.1 340.6L153.2 345.4L151.5 342.1L150.4 346.8L146.6 341.7L143.3 347.5L142 360.1L140.1 353.1L136.9 357L135.9 363.7L131.9 355.3L125.9 349.7L121.6 346.3L115.4 346.8L110.3 343.8L101.1 336.8L96.8 327.8L93.8 320.6L89.5 312.3L87.8 309.3L83.7 314L80.8 304.8L78.3 300.6V294.4L73.8 277.4L71.7 302.8L69.3 293.8L65.5 285.5L63.4 282.5L61.8 275.2L57.2 273L54 278L52.7 292.8L49.5 281.7L44.7 275.8L42.5 281.3L41.5 285.3L35.8 286.5L33.9 280.9L27.7 287.3L25.3 291L21.9 308L20 289.2L18 276.7C16.3 274.2 12 284.2 11.6 283.6C11.3 283 9.7 274.6 9.7 274.6L7 277.7L5.1 274.7L0 262V0H1440V530Z" fill="#3AAFFF"/>
<path d="M1440 241L1438.4 251.6L1434.8 243.5L1432.1 280.6L1429.1 255.8L1426.1 263.7L1422.6 284.7L1421.6 298.3L1419.8 280.7L1417.9 291.4L1415.4 285.8L1413 277.7L1409.8 275.5L1406.3 271.9L1402.3 254.4L1399 266.6L1397.2 260.2L1395.8 266.1L1391.2 267.2L1388 263.8L1384.8 270.1L1382.3 262.3L1381.5 270.1L1378 266.6L1373.1 271.6L1370.2 280.3L1366.4 288.6L1364.5 299.5L1362.1 286.3L1359.1 290.8L1357.5 301.4L1355 293L1353.6 308.4L1350.7 296.9L1348.1 299.4L1345.6 284.9L1341.9 291.8L1338.4 288.5L1330.5 292.9L1329.4 298.2L1327.8 301L1324.9 295.7L1321.2 314.6L1318.8 312C1318.8 312 1317.5 315.7 1317.5 316.4C1317.5 317 1316.4 320.8 1316.4 320.8L1314 315.2L1309.2 331.6L1307.1 320.4L1305.8 324.3L1302.9 305.1L1300.5 313L1298.3 307.7L1294.5 312.1V316.3L1291 322.5L1289.3 316.7L1285 321.8L1280.5 316.5L1278.3 320.9L1275 317.5L1269.9 311L1267.4 304.6L1266.1 299.6L1264.3 295.6L1261.3 298.6L1259.9 293.3V289.7L1256.4 286.6L1251.3 285.8L1249.7 290.5L1246.5 293.9L1244.4 299.7L1241.1 292.7L1238.9 295.2L1233.7 298.5L1228.8 287L1224.4 291.5L1216.6 290.1L1212.8 292.4L1207.9 293.8L1203.1 297.7L1200.1 294.7L1197.9 297.3L1194.7 295.1L1190.1 298.4L1185.2 308.4L1182.8 313.5L1181.5 309.6L1179.3 305.4L1175.6 309.1L1170.7 309.6L1169.6 312.7L1165.3 311L1162 313.2L1154.2 312.1L1149.6 327.7L1145 321.2L1141.2 331.8L1134 346L1132.4 341.8L1131.4 337.1L1130.1 333.8L1127.4 336.1L1125.6 326.6L1122.4 332.1L1120.3 329.3L1118.7 331.9L1114.6 338.6L1106.3 345.3L1101.7 339.2L1096.3 321L1092.7 331.3L1087.3 337.8L1083.8 335.6V330L1080.6 335.8L1078.1 331.4L1073.3 333.7L1068.1 339.9L1060.8 348.8L1057.5 343.3L1053.8 346.6L1047.3 347.2L1044.3 360L1041.4 354.5L1036.9 360.9L1034.8 379.8L1031.1 384.6L1027.9 379.5L1027.1 371.7C1024.6 370.5 1022.8 350 1022.8 351C1022.8 351.9 1019.5 373 1019.5 373L1015.8 379.9C1015.8 379.9 1014.7 369.1 1014.4 369.8C1014.1 370.4 1011.9 376.7 1011.9 376.7L1009.2 374.2L1005.7 378.4L1002.5 362.5L999.8 371.4L997.3 367.5L993.8 371.9L989.5 366.6L986.5 361.6V357.2L978.9 352.1L975.9 356L970.3 363.5L965.4 362.1L964 368.6L957.3 368.4L952.4 363.7L950 368.4L947 372.9L942.1 376.3L935.6 371.8L933.4 378L928.2 371.5L921 367.1L914.8 368L910 368.8L908.7 371.9L904.7 369.1L901.8 371.4L896.1 376.4L892.4 374.1L885.2 373.6L880.9 364.9L877.9 369.3L872.7 369.9L868.1 364.9L862.5 360.7L856.9 358.7L855.3 350.1L852.4 353.7L851.4 357.8L845.4 359.2L843.3 355.1L839.3 352.5L835 357.2L829.9 357L827.8 363.4L824.5 360.1L822.4 362.9L817.3 373.8L811.9 383.1L808.6 374.1L802 374L799.1 368.9L793.5 369.7L791 373.9L786.9 371.6L781.2 371.1L775.5 370.3L769.9 367L765.4 368.4L760.8 364L758.7 359.2L752 355.9L749 352.3L747.9 349L746 344.5L741.4 311L739.2 332.2L733.6 347.5L730.6 342L729.5 345.1L726.8 342.3L724.7 345L718.2 337.1L715 332.4L712.5 336.9L709.8 327.7L705.8 325.4L702.6 318.4L699.3 316.2L693.9 320.7L689 316.3L687.7 324.1L684.8 320.4L678.6 320.1L673 318.2L669.5 322.3L668.4 332.6L664.1 329.5L662.7 324.2L661.1 331.4L658.9 327.4L656 330.4L652.7 334.9L649.5 332.4L647.7 329.1L644.5 333.3L641 331L637.7 324.6L631 319.9L628 323.2L625.9 320.4L619.7 323.4L618.3 328.2L613.4 324.5L604.7 324.7L594.8 323.3L586.9 323.5L581 324L578.8 321.5L574 323.1L572.1 319.8L564.9 315L563.5 320L560.6 317.2L556.9 319.5L553.9 315.8L550.2 318.8L546.7 316.3L538.4 319.9L534.3 311.3L531.4 301.6L527.9 304.2L526.6 296.1L521.7 298.9C521.7 298.9 519.8 295.6 519.9 296.1C520.1 296.6 517.5 282.2 517.5 282.2L514 277.1L510.8 274.1L507.9 296.2L506 283.9L501.1 289.5L498.6 283.4L492.6 289.3L486.7 284.6L479.4 286.5L473.7 288.7L465.9 300.5L462.7 297.1L460.3 294.1L455.5 295.8L453.9 298.4L448 296.2L444.5 298.7L439.6 298.1L434.5 294.8L428.3 291.1L425.1 294.1L420 291.9L415.9 295.2L413 292.7L407.1 292.2L402.5 291.1L398.8 293.1L397.4 289.7L392 288.3L385.2 290L383.8 285.8L377.9 281.6L374.9 278.8L371.9 281.9L367 276.8L363.5 282.9L361.1 280.3L358.4 274.7L355.1 277.8L349.9 277.5L343.9 272.4L341 275.5L336.1 271.4L329.9 272.3L325.4 270.3L323.2 259.2L320.7 263.9L318.2 254.2L313.3 251.9L310.8 244.6L308.7 262.1L302.7 273.9L300.8 267L298.1 261.7L291.6 258.4L289.2 260.9L284.7 258.6L281.2 251.4L277.4 247.8L274.5 254.7L269.3 251.7L266.3 248.6L259.1 238.8L253.1 232.6L248.2 237.4L246.5 234.1L245.4 238.8L241.6 233.7L238.3 239.5L237 252.1L235.1 245.1L231.9 249L230.9 255.7L226.9 247.3L220.9 241.7L216.6 238.3L210.4 238.8L205.3 235.8L196.1 228.8L191.8 219.8L188.8 212.6L184.5 204.3L182.8 201.3L178.7 206L175.8 196.8L173.3 192.6V186.4L168.8 169.4L166.7 194.8L164.3 185.8L160.5 177.5L158.4 174.5L156.8 167.2L152.2 165L149 170L147.7 184.8L144.5 173.7L139.7 167.8L137.5 173.3L136.5 177.4L130.8 178.6L128.9 173L122.7 179.4L120.3 183.1L117 200.2L115.1 181.3L113.2 168.8C111.5 166.3 107.2 176.3 106.8 175.7C106.5 175.1 104.9 166.7 104.9 166.7L102.2 169.8L100.3 166.8L96.8 155L92 150L90.7 140.2L87.8 131.3L80.6 140.8L78.2 130.5L72.2 126.3L69.3 121.2L66.8 137.9L63.8 126.1L62.2 135.4L56.8 141.6L56.2 153.3L52.9 143.3V137.5L48.1 146.5L45.9 139.3L42.7 134.8L39.5 128.4L35.5 132.3L32.8 127.5L30.6 121.1L29.3 112.8L28.5 108.4L23.6 111.5L20.4 103.6L18.3 107.7L16.1 112.7L13.7 104.9L9.6 101.8L8.5 95.6L7.5 91.2L5.1 86.8L3.7 90.4L0 84.9V0H1440V241Z" fill="#66CDFF"/>
<path d="M1440 0H0V193L9 170.5L12 173.6L17 166.1L22.8 163L31 108.2C31 108.2 33.6 117.6 34 116.4C34.4 115.2 42 76.2 42 76.2L43 48.5L45.2 69.7L46.4 37.5L50 25.1L56.9 10.1L59.3 23.3L64 13.2L66.9 36.3L70.7 5L74.5 15L78.9 41.5L80.1 58.6L82.3 36.4L84.7 50L87.9 42.9L90.9 32.7L94.9 30L99.3 25.5L104.3 3.5L108.5 18.8L110.7 10.7L112.5 18.2L118.3 19.6L122.3 15.3L126.3 23.2L129.5 13.3L130.5 23.2L134.9 18.8L141.1 25.1L144.7 36.1L149.5 46.5L151.9 60.2L154.9 43.5L158.7 49.2L160.7 62.5L164 52L165.8 71.4L169.4 56.9L172.6 60L175.8 41.7L180.4 50.3L184.8 46.2L194.8 51.7L196.2 58.4L198.2 61.9L201.8 55.2L206.4 79L209.4 75.7C209.4 75.7 211 80.4 211 81.2C211 82 212.4 86.7 212.4 86.7L215.4 79.6L221.4 100.2L224 86.1L225.6 91L229.2 66.9L232.2 76.9L235 70.2L239.8 75.7V81L244.2 88.9L246.4 81.6L251.8 88.1L257.4 81.4L260.2 86.9L264.4 82.6L270.8 74.4L274 66.3L275.6 60L277.8 54.9L281.6 58.6L283.4 51.9V47.4L287.8 43.5L294.2 42.5L296.2 48.4L300.2 52.7L302.8 60L307 51.2L309.8 54.3L316.4 58.4L322.6 43.9L328.2 49.6L338 47.8L342.8 50.7L349 52.5L355 57.4L358.8 53.7L361.6 57L365.6 54.3L371.4 58.4L378 71L381 77.5L382.6 72.6L385.4 67.3L390 72L396.2 72.6L397.6 76.5L403 74.3L407.2 77L417 75.6L422.8 95.2L428.6 87L433.4 100.3L442.4 118.2L444.4 112.9L445.6 107L447.2 102.9L450.6 105.8L452.8 93.8L456.8 100.7L459.4 97.2L461.4 100.5L466.6 108.9L477 117.3L482.8 109.6L489.6 86.6L494.2 99.6L501 107.8L505.4 105.1V98L509.4 105.3L512.6 99.8L518.6 102.7L525.2 110.6L534.4 121.8L538.6 114.9L543.2 119L551.4 119.8L555.2 135.9L558.8 129L564.4 137L567 160.8L571.6 166.9L575.6 160.4L576.6 150.6C579.8 149 582 123.3 582 124.5C582 125.7 586.2 152.2 586.2 152.2L590.8 160.8C590.8 160.8 592.2 147.3 592.6 148C593 148.8 595.8 156.6 595.8 156.6L599.2 153.5L603.6 158.8L607.6 138.8L611 150L614.2 145.1L618.6 150.6L624 143.9L627.8 137.6V132.1L637.4 125.6L641.2 130.5L648.2 139.9L654.4 138.1L656.2 146.3L664.6 146.1L670.8 140.2L673.8 146.1L677.6 151.8L683.8 156.1L692 150.4L694.8 158.3L701.4 150.1L710.4 144.6L718.2 145.8L724.2 146.8L725.8 150.7L730.8 147.2L734.4 150.1L741.6 156.4L746.2 153.5L755.2 152.9L760.6 141.9L764.4 147.4L771 148.2L776.8 141.9L783.8 136.6L790.8 134.1L792.8 123.3L796.4 127.8L797.6 133L805.2 134.7L807.8 129.6L812.8 126.3L818.2 132.2L824.6 132L827.2 140.1L831.4 136L834 139.5L840.4 153.2L847.2 165L851.4 153.6L860 153.8L863.6 147.3L870.6 148.3L873.8 153.6L879 150.7L886.2 150.1L893.4 149.1L900.4 145L906 146.8L911.8 141.3L914.4 135.2L922.8 131.1L926.6 126.6L928 122.5L930.4 116.8L936.2 74.6L939 101.3L946 120.5L949.8 113.6L951.2 117.5L954.6 114L957.2 117.3L965.4 107.3L969.4 101.4L972.6 107.1L976 95.5L981 92.6L985 83.8L989.2 81.1L996 86.8L1002.2 81.3L1003.8 91.1L1007.4 86.4L1015.2 86L1022.2 83.6L1026.6 88.7L1028 101.7L1033.4 97.8L1035.2 91.1L1037.2 100.1L1040 95L1043.6 98.7L1047.8 104.4L1051.8 101.3L1054 97.2L1058 102.5L1062.4 99.6L1066.6 91.6L1075 85.7L1078.8 89.8L1081.4 86.3L1089.2 90L1091 96.1L1097.2 91.4L1108.2 91.6L1120.6 89.8L1130.6 90L1138 90.6L1140.8 87.5L1146.8 89.5L1149.2 85.4L1158.2 79.3L1160 85.6L1163.6 82.1L1168.2 85L1172 80.3L1176.6 84L1181 80.9L1191.4 85.4L1196.6 74.6L1200.2 62.4L1204.6 65.7L1206.2 55.5L1212.4 59C1212.4 59 1214.8 54.9 1214.6 55.5C1214.4 56.1 1217.6 38 1217.6 38L1222 31.5L1226 27.8L1229.6 55.7L1232 40.2L1238.2 47.3L1241.4 39.6L1249 47.1L1256.4 41.2L1265.6 43.6L1272.8 46.3L1282.6 61.2L1286.6 56.9L1289.6 53.2L1295.6 55.4L1297.6 58.7L1305 56L1309.4 59.1L1315.6 58.3L1322 54.2L1329.8 49.5L1333.8 53.2L1340.2 50.5L1345.4 54.6L1349 51.5L1356.4 50.9L1362.2 49.5L1366.8 52.1L1368.6 47.8L1375.4 46L1384 48.2L1385.8 42.9L1393.2 37.6L1397 34.1L1400.8 38L1407 31.5L1411.4 39.2L1414.4 35.9L1417.8 28.8L1422 32.7L1428.6 32.3L1436.2 25.8L1438.3 30.1V0H1440Z" fill="#87DBFF"/>
<defs>
<linearGradient id="paint0_linear" x1="720" y1="0" x2="720" y2="572.944" gradientUnits="userSpaceOnUse">
<stop stop-color="#35C3FF"/>
<stop offset="1" stop-color="#1890FF"/>
</linearGradient>
</defs>
</svg>