<svg width="73" height="64" viewBox="0 0 73 64" fill="none" xmlns="http://www.w3.org/2000/svg">
<path fill-rule="evenodd" clip-rule="evenodd" d="M52.8673 45.5965C51.5088 44.1249 49.8327 43.3734 47.888 43.3734C45.8659 43.3734 44.3008 44.0659 43.2043 45.4785V38H43.1021L39.4748 41.6226V58.2217H43.2051V56.5147C44.3052 57.9265 45.8659 58.619 47.8858 58.619C49.7861 58.6444 51.6038 57.8446 52.8673 56.4272C54.2558 54.9548 54.9493 53.1362 54.9493 50.9998C54.9493 48.8642 54.2558 47.0667 52.8673 45.5965ZM69.7201 53.4125V47.3845L73 47.378V43.7889H69.7201V38.277L65.9789 42.0235V43.7947H63.4552V47.3845H65.9774V53.4081C65.9774 57.3813 67.8652 58.8544 73 58.2735V54.89C70.8531 55.0037 69.7201 54.976 69.7201 53.4125ZM21.4255 58.162V50.3686C21.4255 50.0005 21.4255 49.6259 21.4146 49.252C21.4134 49.2184 21.411 49.185 21.4087 49.1517L21.4087 49.1516V49.1516V49.1516V49.1515V49.1515C21.4054 49.1037 21.4021 49.0561 21.4021 49.0085C21.2664 46.9691 20.4524 45.2328 18.6646 44.1628C17.1127 43.2386 15.0818 42.9499 13.3517 43.4879C12.2399 43.8312 11.515 44.4959 10.7602 45.3473L10.7208 45.3961L10.6792 45.3473C9.92581 44.4959 9.19946 43.8319 8.08986 43.4879C6.351 42.9499 4.32671 43.2386 2.77619 44.1628C0.9855 45.2328 0.17447 46.9676 0.04015 49.0085C0.0386484 49.0323 0.0368316 49.0559 0.0350145 49.0796C0.0306481 49.1364 0.02628 49.1933 0.02628 49.252C0 49.6266 0 49.9983 0 50.3701V58.1634L3.7157 58.1518V50.5559L3.7449 49.4859C3.74636 47.9552 4.67565 46.8014 6.09258 46.6899C6.40416 46.6629 6.71804 46.6941 7.01822 46.7817C7.50304 46.8961 7.9392 47.1607 8.26433 47.5376C8.37839 47.6753 8.47454 47.8269 8.55049 47.9888C8.72387 48.3834 8.82239 48.8068 8.84103 49.2374C8.85198 49.3562 8.86074 49.4757 8.86074 49.596V50.0946V58.1488H12.5648V49.5916C12.5677 49.4713 12.5735 49.3504 12.583 49.2308C12.6028 48.801 12.7018 48.3784 12.875 47.9844C12.9507 47.8238 13.0469 47.6736 13.1612 47.5376C13.4866 47.1569 13.9252 46.8898 14.4131 46.7752C14.7111 46.6891 15.0223 46.658 15.3315 46.6833C16.7469 46.797 17.6791 47.9516 17.6791 49.4801L17.7083 50.5494V58.1496L21.4255 58.162ZM33.7296 43.7794L30.5162 53.481L26.7603 43.7794H22.6899L28.6182 57.7523C27.9247 59.7174 26.8312 60.5506 24.8295 60.5221V63.9851C28.5328 64.1855 30.9505 62.3684 32.4616 58.2108L37.7227 43.7787L33.7296 43.7794ZM61.3171 43.7794H57.589V58.2137H61.3171V43.7794ZM47.2054 55.0693C48.3588 55.0707 49.313 54.6953 50.067 53.9424V53.9431C50.8474 53.1588 51.2161 52.1858 51.2161 50.9998C51.2161 49.8139 50.8474 48.8343 50.0663 48.0813C49.3122 47.308 48.3588 46.9333 47.2047 46.9333C46.0513 46.9333 45.0965 47.3036 44.3431 48.0813C43.5905 48.8314 43.2153 49.8139 43.2153 50.9998C43.2145 52.1828 43.5905 53.1632 44.3438 53.9431C45.0957 54.6961 46.0557 55.0693 47.2054 55.0693Z" fill="white"/>
<path d="M57.1716 38.9966L60.0035 36.1716L62.8285 39.0035L59.9966 41.8285L57.1716 38.9966Z" fill="white"/>
<path d="M55 18.178L48.2532 25C45.2789 21.9873 41.2417 20.292 37.0301 20.2871C32.8186 20.2822 28.7776 21.9681 25.7964 24.9738L25.7697 25H25.7512L19 18.178L37.0026 0L55 18.178Z" fill="white"/>
<path d="M45.9992 26.8177L36.5049 36L27 26.8133C29.509 24.363 32.9297 22.9893 36.4951 23.0001C37.1313 23.0001 37.7659 23.0434 38.3953 23.1278C41.2802 23.517 43.9525 24.8138 46 26.8162L45.9992 26.8177Z" fill="white"/>
</svg>
