<svg width="86" height="54" viewBox="0 0 86 54" fill="none" xmlns="http://www.w3.org/2000/svg">
<path d="M50.7452 3.47671C48.526 1.25753 45.4931 0 42.3862 0C39.2054 0 36.2465 1.25753 34.0273 3.47671L42.3862 11.8356L50.7452 3.47671Z" fill="#1890FF"/>
<path d="M58.4383 36.1726L52.4465 53.926H56.8849L57.7726 51.1151H64.3561L65.2438 53.926H69.6821L63.6904 36.1726H58.4383V36.1726ZM63.0986 47.3425H58.9561L61.0274 40.8329L63.0986 47.3425Z" fill="#1890FF"/>
<path d="M54.148 23.3014C56.2932 21.0083 57.5507 17.9754 57.4767 14.7946C57.4028 11.6137 56.2932 8.58087 54.148 6.36169L46.011 14.7946L54.148 23.3014Z" fill="#1890FF"/>
<path d="M34.0273 26.5562C38.6876 31.2164 46.1589 31.2164 50.7452 26.5562L42.3862 18.1233L34.0273 26.5562Z" fill="#1890FF"/>
<path d="M39.1315 14.9425L30.6986 6.58362C28.4795 8.8028 27.2219 11.8357 27.2219 14.9425C27.2219 18.0494 28.4795 21.0822 30.6986 23.3014L39.1315 14.9425Z" fill="#1890FF"/>
<path d="M8.87671 44.0877L4.06849 36.1726H0V53.926H4.06849V43.6438L8.65479 51.1151H9.09863L13.6849 43.6438V53.926H17.6795V36.1726H13.6849L8.87671 44.0877Z" fill="#1890FF"/>
<path d="M79.8164 44.8274L84.8465 36.1726H80.1862L77.4493 40.9069L74.7123 36.1726H70.126L75.1561 44.8274L69.9041 53.926H74.4904L77.4493 48.8219L80.4821 53.926H85.0684L79.8164 44.8274Z" fill="#1890FF"/>
<path d="M43.7178 36.1726H36.6164V43.5699H34.7671V47.2685H36.6164V53.8521H43.7178C48.6 53.8521 52.2986 50.0055 52.2986 44.9753C52.2986 40.0192 48.6 36.1726 43.7178 36.1726ZM43.7178 50.0055H40.6849V47.3425H42.9041V43.6438H40.6849V40.0932H43.7178C46.5287 40.0932 48.452 42.0164 48.452 45.0493C48.452 48.0822 46.5287 50.0055 43.7178 50.0055Z" fill="#1890FF"/>
<path d="M30.5507 36.1726L27.148 43.0521L23.8192 36.1726H19.2329L25.1507 47.1205V53.926H29.2192V47.1205L35.137 36.1726H30.5507Z" fill="#1890FF"/>
</svg>
