<svg width="16" height="16" viewBox="0 0 16 16" fill="none" xmlns="http://www.w3.org/2000/svg">
<path d="M15 9.19375V6.80625C15 6.39062 14.6656 6.05625 14.25 6.05625H9.94375V1.75C9.94375 1.33437 9.60938 1 9.19375 1H6.80625C6.39062 1 6.05625 1.33437 6.05625 1.75V6.05625H1.75C1.33437 6.05625 1 6.39062 1 6.80625V9.19375C1 9.60938 1.33437 9.94375 1.75 9.94375H6.05625V14.25C6.05625 14.6656 6.39062 15 6.80625 15H9.19375C9.60938 15 9.94375 14.6656 9.94375 14.25V9.94375H14.25C14.6656 9.94375 15 9.60938 15 9.19375Z" fill="#1890FF"/>
<mask id="mask0" mask-type="alpha" maskUnits="userSpaceOnUse" x="1" y="1" width="14" height="14">
<path d="M15 9.19375V6.80625C15 6.39062 14.6656 6.05625 14.25 6.05625H9.94375V1.75C9.94375 1.33437 9.60938 1 9.19375 1H6.80625C6.39062 1 6.05625 1.33437 6.05625 1.75V6.05625H1.75C1.33437 6.05625 1 6.39062 1 6.80625V9.19375C1 9.60938 1.33437 9.94375 1.75 9.94375H6.05625V14.25C6.05625 14.6656 6.39062 15 6.80625 15H9.19375C9.60938 15 9.94375 14.6656 9.94375 14.25V9.94375H14.25C14.6656 9.94375 15 9.60938 15 9.19375Z" fill="white"/>
</mask>
<g mask="url(#mask0)">
</g>
</svg>
