<svg width="48" height="48" viewBox="0 0 48 48" fill="none" xmlns="http://www.w3.org/2000/svg">
<g filter="url(#filter0_d)">
<path d="M24 42C35.0457 42 44 33.0457 44 22C44 10.9543 35.0457 2 24 2C12.9543 2 4 10.9543 4 22C4 33.0457 12.9543 42 24 42Z" fill="white"/>
</g>
<path fill-rule="evenodd" clip-rule="evenodd" d="M26.5 25C29.5376 25 32 22.5376 32 19.5C32 16.4535 29.5465 14 26.5 14C23.4624 14 21 16.4624 21 19.5C21 20.1022 21.0971 20.6817 21.276 21.224L16.2197 26.2803C16.079 26.421 16 26.6118 16 26.8107V29.25C16 29.6642 16.3358 30 16.75 30H20.25C20.6642 30 21 29.6642 21 29.25V28H22.25C22.6642 28 23 27.6642 23 27.25V26H24.1632C24.3774 26 24.5815 25.9084 24.7238 25.7483L25.4742 24.9041C25.8066 24.9668 26.1494 25 26.5 25ZM28 19.5C27.1716 19.5 26.5 18.8284 26.5 18C26.5 17.1716 27.1716 16.5 28 16.5C28.8284 16.5 29.5 17.1716 29.5 18C29.5 18.8284 28.8284 19.5 28 19.5Z" fill="#FAAD14"/>
<defs>
<filter id="filter0_d" x="0" y="0" width="48" height="48" filterUnits="userSpaceOnUse" color-interpolation-filters="sRGB">
<feFlood flood-opacity="0" result="BackgroundImageFix"/>
<feColorMatrix in="SourceAlpha" type="matrix" values="0 0 0 0 0 0 0 0 0 0 0 0 0 0 0 0 0 0 127 0"/>
<feOffset dy="2"/>
<feGaussianBlur stdDeviation="2"/>
<feColorMatrix type="matrix" values="0 0 0 0 0 0 0 0 0 0 0 0 0 0 0 0 0 0 0.2 0"/>
<feBlend mode="normal" in2="BackgroundImageFix" result="effect1_dropShadow"/>
<feBlend mode="normal" in="SourceGraphic" in2="effect1_dropShadow" result="shape"/>
</filter>
</defs>
</svg>
