<svg width="48" height="48" viewBox="0 0 48 48" fill="none" xmlns="http://www.w3.org/2000/svg">
<path d="M24 48C37.2548 48 48 37.2548 48 24C48 10.7452 37.2548 0 24 0C10.7452 0 0 10.7452 0 24C0 37.2548 10.7452 48 24 48Z" fill="#52C41A"/>
<path fill-rule="evenodd" clip-rule="evenodd" d="M16.5635 32.9678L24.5322 24.999C25.083 24.4482 25.083 23.5576 24.5264 23.0068L16.5576 15.0381C16.0127 14.4873 15.1221 14.4873 14.5713 15.0381L13.2529 16.374C12.7021 16.9189 12.7021 17.8096 13.2529 18.3604L18.9014 24.0088L13.2529 29.6572C12.7021 30.2021 12.7021 31.0928 13.2529 31.6436L14.5771 32.9678C15.1221 33.5186 16.0127 33.5186 16.5635 32.9678ZM27.8135 15.0381L35.7822 23.0068C36.333 23.5576 36.333 24.4482 35.7822 24.9873L27.8135 32.9561C27.2686 33.5068 26.3779 33.5068 25.8271 32.9561L24.5029 31.6318C23.9521 31.0869 23.9521 30.1963 24.5029 29.6455L30.1514 23.9971L24.5029 18.3486C23.9521 17.8037 23.9521 16.9131 24.5029 16.3623L25.8271 15.0381C26.3721 14.4873 27.2627 14.4873 27.8135 15.0381Z" fill="white"/>
<mask id="mask0" mask-type="alpha" maskUnits="userSpaceOnUse" x="12" y="14" width="25" height="20">
<path fill-rule="evenodd" clip-rule="evenodd" d="M16.5635 32.9678L24.5322 24.999C25.083 24.4482 25.083 23.5576 24.5264 23.0068L16.5576 15.0381C16.0127 14.4873 15.1221 14.4873 14.5713 15.0381L13.2529 16.374C12.7021 16.9189 12.7021 17.8096 13.2529 18.3604L18.9014 24.0088L13.2529 29.6572C12.7021 30.2021 12.7021 31.0928 13.2529 31.6436L14.5771 32.9678C15.1221 33.5186 16.0127 33.5186 16.5635 32.9678ZM27.8135 15.0381L35.7822 23.0068C36.333 23.5576 36.333 24.4482 35.7822 24.9873L27.8135 32.9561C27.2686 33.5068 26.3779 33.5068 25.8271 32.9561L24.5029 31.6318C23.9521 31.0869 23.9521 30.1963 24.5029 29.6455L30.1514 23.9971L24.5029 18.3486C23.9521 17.8037 23.9521 16.9131 24.5029 16.3623L25.8271 15.0381C26.3721 14.4873 27.2627 14.4873 27.8135 15.0381Z" fill="white"/>
</mask>
<g mask="url(#mask0)">
</g>
</svg>

