<svg width="48" height="48" viewBox="0 0 48 48" fill="none" xmlns="http://www.w3.org/2000/svg">
<g filter="url(#filter0_d)">
<path d="M24 42C35.0457 42 44 33.0457 44 22C44 10.9543 35.0457 2 24 2C12.9543 2 4 10.9543 4 22C4 33.0457 12.9543 42 24 42Z" fill="white"/>
</g>
<path fill-rule="evenodd" clip-rule="evenodd" d="M31.4031 15.2156C31.5937 15.2562 31.7437 15.4062 31.7843 15.5969C32 16.6031 32 17.3906 31.9968 18.1781C31.9968 21.3875 30.2656 23.3281 27.9968 24.775V28.0375C27.9968 28.6031 27.6781 29.125 27.1687 29.3781L24.0843 30.9219C23.5875 31.1688 23 30.8062 23 30.25V27.2781C22.6 27.4625 22.2031 27.6469 21.8218 27.8375C21.6281 27.9344 21.3968 27.8969 21.2437 27.7437L19.2562 25.7563C19.1031 25.6031 19.0656 25.3719 19.1625 25.1781C19.3531 24.7969 19.5406 24.4 19.725 24H16.7531C16.1937 24 15.8312 23.4156 16.0812 22.9156L17.625 19.8281C17.8781 19.3219 18.3968 19 18.9656 19H22.2218C23.6656 16.725 25.6 15 28.825 15C29.6093 15 30.3968 15 31.4031 15.2156ZM27 18.5C27 19.3281 27.6718 20 28.5 20C29.3281 20 30 19.3281 30 18.5C30 17.6719 29.3281 17 28.5 17C27.6718 17 27 17.6719 27 18.5Z" fill="black"/>
<mask id="mask0" mask-type="alpha" maskUnits="userSpaceOnUse" x="16" y="15" width="16" height="17">
<path fill-rule="evenodd" clip-rule="evenodd" d="M31.4031 15.2156C31.5937 15.2562 31.7437 15.4062 31.7843 15.5969C32 16.6031 32 17.3906 31.9968 18.1781C31.9968 21.3875 30.2656 23.3281 27.9968 24.775V28.0375C27.9968 28.6031 27.6781 29.125 27.1687 29.3781L24.0843 30.9219C23.5875 31.1688 23 30.8062 23 30.25V27.2781C22.6 27.4625 22.2031 27.6469 21.8218 27.8375C21.6281 27.9344 21.3968 27.8969 21.2437 27.7437L19.2562 25.7563C19.1031 25.6031 19.0656 25.3719 19.1625 25.1781C19.3531 24.7969 19.5406 24.4 19.725 24H16.7531C16.1937 24 15.8312 23.4156 16.0812 22.9156L17.625 19.8281C17.8781 19.3219 18.3968 19 18.9656 19H22.2218C23.6656 16.725 25.6 15 28.825 15C29.6093 15 30.3968 15 31.4031 15.2156ZM27 18.5C27 19.3281 27.6718 20 28.5 20C29.3281 20 30 19.3281 30 18.5C30 17.6719 29.3281 17 28.5 17C27.6718 17 27 17.6719 27 18.5Z" fill="white"/>
</mask>
<g mask="url(#mask0)">
<rect x="16" y="15" width="16" height="16" fill="#52C41A"/>
</g>
<defs>
<filter id="filter0_d" x="0" y="0" width="48" height="48" filterUnits="userSpaceOnUse" color-interpolation-filters="sRGB">
<feFlood flood-opacity="0" result="BackgroundImageFix"/>
<feColorMatrix in="SourceAlpha" type="matrix" values="0 0 0 0 0 0 0 0 0 0 0 0 0 0 0 0 0 0 127 0"/>
<feOffset dy="2"/>
<feGaussianBlur stdDeviation="2"/>
<feColorMatrix type="matrix" values="0 0 0 0 0 0 0 0 0 0 0 0 0 0 0 0 0 0 0.2 0"/>
<feBlend mode="normal" in2="BackgroundImageFix" result="effect1_dropShadow"/>
<feBlend mode="normal" in="SourceGraphic" in2="effect1_dropShadow" result="shape"/>
</filter>
</defs>
</svg>
