<svg width="48" height="48" viewBox="0 0 48 48" fill="none" xmlns="http://www.w3.org/2000/svg">
<path d="M24 48C37.2548 48 48 37.2548 48 24C48 10.7452 37.2548 0 24 0C10.7452 0 0 10.7452 0 24C0 37.2548 10.7452 48 24 48Z" fill="#FAAD14"/>
<path fill-rule="evenodd" clip-rule="evenodd" d="M25.6 33.4219H34C34.6628 33.4219 35.2 33.9597 35.2 34.623V35.4238C35.2 36.0872 34.6628 36.625 34 36.625H14C13.3373 36.625 12.8 36.0872 12.8 35.4238V34.623C12.8 33.9597 13.3373 33.4219 14 33.4219H22.4V18.6737C21.2235 18.159 20.3418 17.0948 20.0802 15.8047H14C13.3373 15.8047 12.8 15.2669 12.8 14.6035V13.8027C12.8 13.1393 13.3373 12.6016 14 12.6016H20.7999C21.5297 11.6291 22.6914 11 24 11C25.3086 11 26.4703 11.6291 27.2001 12.6016H34C34.6628 12.6016 35.2 13.1393 35.2 13.8027V14.6035C35.2 15.2669 34.6628 15.8047 34 15.8047H27.9198C27.6582 17.0948 26.7766 18.159 25.6 18.6737V33.4219ZM39.9991 27.7799C39.9992 27.7039 39.9993 27.6378 39.9952 27.5719C39.9676 27.1291 39.7505 26.6981 38.0745 23.3704L38.0745 23.3704L38.0745 23.3704L38.0742 23.3699L38.0731 23.3677C37.4911 22.2121 36.7333 20.7075 35.7467 18.7322C34.8643 16.9658 32.3374 16.9626 31.4534 18.7322C30.5172 20.6065 29.787 22.0584 29.2175 23.1909C27.4397 26.726 27.2277 27.1475 27.2037 27.5794C27.2004 27.6378 27.2006 27.6965 27.2008 27.7631L27.201 27.8164H27.2C27.2 30.0277 30.0654 31.8203 33.6 31.8203C37.1346 31.8203 40 30.0277 40 27.8164H39.9991L39.9991 27.7799ZM37.2 27.0156L33.6 19.8086L30 27.0156H37.2ZM20.7991 27.7799C20.7992 27.7039 20.7993 27.6378 20.7952 27.5719C20.7676 27.1291 20.5505 26.6981 18.8745 23.3704C18.2923 22.2145 17.5341 20.7091 16.5466 18.7322C15.6643 16.9658 13.1374 16.9626 12.2534 18.7322C11.3172 20.6065 10.587 22.0584 10.0175 23.1909C8.23967 26.726 8.02772 27.1475 8.00369 27.5794C8.00043 27.6378 8.00062 27.6965 8.00084 27.7631C8.00089 27.7803 8.00095 27.798 8.00095 27.8164H8C8 30.0277 10.8654 31.8203 14.4 31.8203C17.9346 31.8203 20.8 30.0277 20.8 27.8164H20.7991C20.7991 27.804 20.7991 27.7918 20.7991 27.7799ZM18 27.0156L14.4 19.8086L10.8 27.0156H18Z" fill="white"/>
<mask id="mask0" mask-type="alpha" maskUnits="userSpaceOnUse" x="8" y="11" width="32" height="26">
<path fill-rule="evenodd" clip-rule="evenodd" d="M25.6 33.4219H34C34.6628 33.4219 35.2 33.9597 35.2 34.623V35.4238C35.2 36.0872 34.6628 36.625 34 36.625H14C13.3373 36.625 12.8 36.0872 12.8 35.4238V34.623C12.8 33.9597 13.3373 33.4219 14 33.4219H22.4V18.6737C21.2235 18.159 20.3418 17.0948 20.0802 15.8047H14C13.3373 15.8047 12.8 15.2669 12.8 14.6035V13.8027C12.8 13.1393 13.3373 12.6016 14 12.6016H20.7999C21.5297 11.6291 22.6914 11 24 11C25.3086 11 26.4703 11.6291 27.2001 12.6016H34C34.6628 12.6016 35.2 13.1393 35.2 13.8027V14.6035C35.2 15.2669 34.6628 15.8047 34 15.8047H27.9198C27.6582 17.0948 26.7766 18.159 25.6 18.6737V33.4219ZM39.9991 27.7799C39.9992 27.7039 39.9993 27.6378 39.9952 27.5719C39.9676 27.1291 39.7505 26.6981 38.0745 23.3704L38.0745 23.3704L38.0745 23.3704L38.0742 23.3699L38.0731 23.3677C37.4911 22.2121 36.7333 20.7075 35.7467 18.7322C34.8643 16.9658 32.3374 16.9626 31.4534 18.7322C30.5172 20.6065 29.787 22.0584 29.2175 23.1909C27.4397 26.726 27.2277 27.1475 27.2037 27.5794C27.2004 27.6378 27.2006 27.6965 27.2008 27.7631L27.201 27.8164H27.2C27.2 30.0277 30.0654 31.8203 33.6 31.8203C37.1346 31.8203 40 30.0277 40 27.8164H39.9991L39.9991 27.7799ZM37.2 27.0156L33.6 19.8086L30 27.0156H37.2ZM20.7991 27.7799C20.7992 27.7039 20.7993 27.6378 20.7952 27.5719C20.7676 27.1291 20.5505 26.6981 18.8745 23.3704C18.2923 22.2145 17.5341 20.7091 16.5466 18.7322C15.6643 16.9658 13.1374 16.9626 12.2534 18.7322C11.3172 20.6065 10.587 22.0584 10.0175 23.1909C8.23967 26.726 8.02772 27.1475 8.00369 27.5794C8.00043 27.6378 8.00062 27.6965 8.00084 27.7631C8.00089 27.7803 8.00095 27.798 8.00095 27.8164H8C8 30.0277 10.8654 31.8203 14.4 31.8203C17.9346 31.8203 20.8 30.0277 20.8 27.8164H20.7991C20.7991 27.804 20.7991 27.7918 20.7991 27.7799ZM18 27.0156L14.4 19.8086L10.8 27.0156H18Z" fill="white"/>
</mask>
<g mask="url(#mask0)">
</g>
</svg>
