<svg width="48" height="48" viewBox="0 0 48 48" fill="none" xmlns="http://www.w3.org/2000/svg">
<path d="M24 48C37.2548 48 48 37.2548 48 24C48 10.7452 37.2548 0 24 0C10.7452 0 0 10.7452 0 24C0 37.2548 10.7452 48 24 48Z" fill="#1890FF"/>
<path fill-rule="evenodd" clip-rule="evenodd" d="M32.2495 15.4324L34.3484 17.834V26.79H33.3918C33.4198 26.0426 33.1732 25.3421 32.6932 24.806L28.6551 19.8644C28.8013 19.7045 28.7928 19.4567 28.6361 19.3068C28.4954 19.1719 28.2828 19.161 28.1301 19.2689C28.1091 19.2839 25.1185 22.4129 25.1185 22.4129L25.1085 22.4234C23.9157 23.7676 21.8086 23.7326 20.6597 22.3524C19.8872 21.4242 19.8967 20.0847 20.6822 19.1669L24.0042 15.2865C24.6826 14.4936 25.6921 14 26.7982 14H29.0962C30.3044 14.0001 31.4538 14.5222 32.2495 15.4324ZM9.19766 16.3981H11.593C12.2544 16.3981 12.7906 16.9349 12.7906 17.5972V27.989C12.7906 28.6513 12.2544 29.1881 11.593 29.1881H9.19766C8.5362 29.1881 8 28.6513 8 27.989V17.5972C8 16.9349 8.5362 16.3981 9.19766 16.3981ZM9.39727 26.79C9.39727 27.3418 9.84409 27.7892 10.3953 27.7892C10.9465 27.7892 11.3934 27.3418 11.3934 26.79C11.3934 26.2381 10.9465 25.7908 10.3953 25.7908C9.84409 25.7908 9.39727 26.2381 9.39727 26.79ZM38.7398 16.3981H36.3445C35.6831 16.3981 35.1469 16.9349 35.1469 17.5972V27.989C35.1469 28.6513 35.6831 29.1881 36.3445 29.1881H38.7398C39.4013 29.1881 39.9375 28.6513 39.9375 27.989V17.5972C39.9375 16.9349 39.4013 16.3981 38.7398 16.3981ZM36.5441 26.79C36.5441 27.3418 36.991 27.7892 37.5422 27.7892C38.0934 27.7892 38.5402 27.3418 38.5402 26.79C38.5402 26.2381 38.0934 25.7908 37.5422 25.7908C36.991 25.7908 36.5441 26.2381 36.5441 26.79ZM31.9631 28.2059C32.7096 27.5104 32.8529 26.159 32.0814 25.3206L28.1017 20.4449L25.7009 22.9605C24.1887 24.6558 21.5123 24.6255 20.0464 22.8645C19.0234 21.635 19.0359 19.8614 20.0759 18.6469L23.2482 14.9418C22.6728 14.3417 21.8768 14 21.042 14H19.1746C18.2281 14.0001 17.3203 14.3766 16.6511 15.0467L13.5891 17.5732V26.79L18.2939 31.5862C19.1751 32.526 20.4841 33.125 21.9158 33.125C22.6139 33.125 23.3924 32.8872 23.9024 32.3771C25.2439 32.8417 26.54 31.9562 26.8556 30.8977C28.6037 31.0261 29.7536 29.4478 29.6711 28.6655C29.8456 28.8555 31.0793 29.0283 31.9631 28.2059Z" fill="white"/>
</svg>

